<?xml version="1.0" standalone="no"?>
<!DOCTYPE svg PUBLIC "-//W3C//DTD SVG 20010904//EN"
 "http://www.w3.org/TR/2001/REC-SVG-20010904/DTD/svg10.dtd">
<svg version="1.0" xmlns="http://www.w3.org/2000/svg"
 width="298.000000pt" height="298.000000pt" viewBox="0 0 298.000000 298.000000"
 preserveAspectRatio="xMidYMid meet">
<metadata>
Created by potrace 1.14, written by Peter Selinger 2001-2017
</metadata>
<g transform="translate(0.000000,298.000000) scale(0.100000,-0.100000)"
fill="#000000" stroke="none">
<path d="M1400 2834 c-250 -66 -462 -172 -594 -295 -119 -111 -252 -294 -315
-433 -112 -244 -110 -504 4 -768 47 -110 127 -242 214 -356 39 -51 71 -95 71
-97 0 -2 -15 -7 -32 -10 -18 -4 -51 -13 -73 -20 -22 -7 -112 -32 -200 -55
-158 -42 -197 -59 -243 -110 -31 -33 -39 -52 -142 -335 l-88 -240 744 -3 c409
-1 1079 -1 1488 0 l744 3 -60 165 c-116 318 -130 354 -153 387 -46 69 -85 87
-330 153 -126 34 -231 63 -233 65 -2 2 21 34 51 72 153 191 259 398 301 591
15 66 22 239 12 287 -2 11 -7 40 -11 65 -38 233 -275 579 -498 727 -127 84
-353 179 -517 217 -50 12 -63 11 -140 -10z"/>
</g>
</svg>
